Roboto-Black.ufo
<glyph name="Q" format="2">
  <advance width="1414"/>
  <unicode hex="0051"/>
  <guideline x="0.0" y="901.0" angle="0.0" identifier="oybmCNs6KZ"/>
  <guideline x="0.0" y="555.0" angle="0.0" identifier="VQjWO0f7vL"/>
  <anchor x="700" y="1600" name="top"/>
  <anchor x="698" y="-10" name="bottom"/>
  <anchor x="1414" y="1600" name="top_dd"/>
  <anchor x="1414" y="-407" name="bottom_dd"/>
  <anchor x="1414" y="1600" name="top0315"/>
  <anchor x="700" y="1600" name="parent_top"/>
  <outline>
    <contour>
      <point x="923" y="240" type="line"/>
      <point x="712" y="56" type="line"/>
      <point x="1111" y="-266" type="line"/>
      <point x="1329" y="-82" type="line"/>
    </contour>
    <contour>
      <point x="1346" y="757" type="line"/>
      <point x="1346" y="1202"/>
      <point x="1080" y="1476"/>
      <point x="708" y="1476" type="curve" smooth="yes"/>
      <point x="333" y="1476"/>
      <point x="72" y="1202"/>
      <point x="72" y="757" type="curve"/>
      <point x="72" y="698" type="line"/>
      <point x="72" y="253"/>
      <point x="335" y="-20"/>
      <point x="710" y="-20" type="curve" smooth="yes"/>
      <point x="1082" y="-20"/>
      <point x="1346" y="253"/>
      <point x="1346" y="698" type="curve"/>
    </contour>
    <contour>
      <point x="989" y="698" type="line"/>
      <point x="989" y="413"/>
      <point x="889" y="254"/>
      <point x="710" y="254" type="curve" smooth="yes"/>
      <point x="524" y="254"/>
      <point x="429" y="413"/>
      <point x="429" y="698" type="curve" smooth="yes"/>
      <point x="429" y="759" type="line" smooth="yes"/>
      <point x="429" y="1047"/>
      <point x="522" y="1201"/>
      <point x="708" y="1201" type="curve" smooth="yes"/>
      <point x="887" y="1201"/>
      <point x="989" y="1047"/>
      <point x="989" y="759" type="curve"/>
    </contour>
  </outline>
</glyph>
<glyph name="Uogonek" format="2">
  <advance width="1361"/>
  <unicode hex="0172"/>
  <anchor x="674" y="1600" name="parent_top"/>
  <anchor x="674" y="0" name="bottom"/>
  <anchor x="1361" y="1600" name="top_dd"/>
  <anchor x="1361" y="-407" name="bottom_dd"/>
  <anchor x="1361" y="1600" name="top0315"/>
  <anchor x="674" y="1600" name="top"/>
  <outline>
    <contour>
      <point x="901" y="1456" type="line"/>
      <point x="901" y="505" type="line" smooth="yes"/>
      <point x="901" y="325"/>
      <point x="825" y="250"/>
      <point x="681" y="250" type="curve" smooth="yes"/>
      <point x="538" y="250"/>
      <point x="458" y="325"/>
      <point x="458" y="505" type="curve" smooth="yes"/>
      <point x="458" y="1456" type="line"/>
      <point x="106" y="1456" type="line"/>
      <point x="106" y="505" type="line"/>
      <point x="106" y="164"/>
      <point x="339" y="-20"/>
      <point x="681" y="-20" type="curve" smooth="yes"/>
      <point x="1026" y="-20"/>
      <point x="1252" y="164"/>
      <point x="1252" y="505" type="curve"/>
      <point x="1252" y="1456" type="line"/>
    </contour>
    <contour>
      <point x="865" y="136" type="line"/>
      <point x="705" y="63"/>
      <point x="664" y="-30"/>
      <point x="664" y="-127" type="curve" smooth="yes"/>
      <point x="664" y="-267"/>
      <point x="772" y="-341"/>
      <point x="907" y="-341" type="curve" smooth="yes"/>
      <point x="988" y="-341"/>
      <point x="1040" y="-317"/>
      <point x="1073" y="-297" type="curve"/>
      <point x="1034" y="-129" type="line"/>
      <point x="1017" y="-137"/>
      <point x="999" y="-147"/>
      <point x="965" y="-147" type="curve" smooth="yes"/>
      <point x="921" y="-147"/>
      <point x="905" y="-120"/>
      <point x="905" y="-85" type="curve" smooth="yes"/>
      <point x="905" y="-19"/>
      <point x="944" y="22"/>
      <point x="1051" y="76" type="curve"/>
    </contour>
  </outline>
</glyph>
<glyph name="longs" format="2">
  <advance width="539"/>
  <unicode hex="017F"/>
  <anchor x="361" y="1662" name="top"/>
  <anchor x="281" y="10" name="bottom"/>
  <anchor x="539" y="1662" name="top0315"/>
  <anchor x="361" y="1662" name="parent_top"/>
  <outline>
    <contour>
      <point x="432" y="0" type="line"/>
      <point x="432" y="1170" type="line" smooth="yes"/>
      <point x="432" y="1252"/>
      <point x="480" y="1297"/>
      <point x="564" y="1297" type="curve" smooth="yes"/>
      <point x="609" y="1297"/>
      <point x="634" y="1293"/>
      <point x="666" y="1287" type="curve"/>
      <point x="690" y="1536" type="line"/>
      <point x="633" y="1548"/>
      <point x="579" y="1557"/>
      <point x="522" y="1557" type="curve" smooth="yes"/>
      <point x="253" y="1557"/>
      <point x="95" y="1421"/>
      <point x="95" y="1170" type="curve" smooth="yes"/>
      <point x="95" y="0" type="line"/>
    </contour>
  </outline>
</glyph>
<glyph name="chook" format="2">
  <advance width="1192"/>
  <unicode hex="0188"/>
  <outline>
    <contour>
      <point x="1017" y="668" type="line" name="hr00"/>
      <point x="1017" y="861" type="line" smooth="yes"/>
      <point x="1017" y="971"/>
      <point x="1116" y="996"/>
      <point x="1190" y="996" type="curve" smooth="yes"/>
      <point x="1220" y="996"/>
      <point x="1244" y="993"/>
      <point x="1273" y="989" type="curve"/>
      <point x="1273" y="1205" type="line"/>
      <point x="1224" y="1217"/>
      <point x="1186" y="1220"/>
      <point x="1137" y="1220" type="curve" smooth="yes"/>
      <point x="919" y="1220"/>
      <point x="785" y="1093"/>
      <point x="785" y="861" type="curve" smooth="yes"/>
      <point x="785" y="668" type="line"/>
    </contour>
    <contour>
      <point x="552" y="240" type="curve" smooth="yes"/>
      <point x="411" y="240"/>
      <point x="390" y="369"/>
      <point x="390" y="529" type="curve" smooth="yes"/>
      <point x="390" y="552" type="line" smooth="yes"/>
      <point x="390" y="708"/>
      <point x="411" y="842"/>
      <point x="550" y="842" type="curve"/>
      <point x="653" y="842"/>
      <point x="702" y="765"/>
      <point x="700" y="668" type="curve"/>
      <point x="1017" y="668" type="line"/>
      <point x="1018" y="943"/>
      <point x="828" y="1102"/>
      <point x="558" y="1102" type="curve" smooth="yes"/>
      <point x="222" y="1102"/>
      <point x="53" y="865"/>
      <point x="53" y="552" type="curve" smooth="yes"/>
      <point x="53" y="529" type="line" smooth="yes"/>
      <point x="53" y="216"/>
      <point x="222" y="-20"/>
      <point x="560" y="-20" type="curve"/>
      <point x="820" y="-20"/>
      <point x="1018" y="142"/>
      <point x="1017" y="386" type="curve"/>
      <point x="700" y="386" type="line"/>
      <point x="702" y="294"/>
      <point x="646" y="240"/>
    </contour>
  </outline>
</glyph>
<glyph name="rrthook" format="2">
  <advance width="776"/>
  <unicode hex="027D"/>
  <anchor x="393" y="-309" name="parenthesses.w1"/>
  <anchor x="545" y="1290" name="top"/>
  <anchor x="545" y="-447" name="bottom"/>
  <anchor x="776" y="1290" name="top0315"/>
  <anchor x="545" y="1290" name="parent_top"/>
  <outline>
    <contour>
      <point x="98" y="216" type="line"/>
      <point x="98" y="-77" type="line" smooth="yes"/>
      <point x="98" y="-399"/>
      <point x="336" y="-436"/>
      <point x="512" y="-436" type="curve" smooth="yes"/>
      <point x="590" y="-436"/>
      <point x="641" y="-431"/>
      <point x="691" y="-421" type="curve"/>
      <point x="691" y="-205" type="line"/>
      <point x="661" y="-209"/>
      <point x="637" y="-212"/>
      <point x="607" y="-212" type="curve" smooth="yes"/>
      <point x="533" y="-212"/>
      <point x="435" y="-187"/>
      <point x="435" y="-77" type="curve" smooth="yes"/>
      <point x="435" y="216" type="line"/>
    </contour>
    <contour>
      <point x="435" y="814" type="line"/>
      <point x="413" y="1082" type="line"/>
      <point x="98" y="1082" type="line"/>
      <point x="98" y="0" type="line"/>
      <point x="435" y="0" type="line"/>
    </contour>
    <contour>
      <point x="755" y="1090" type="line"/>
      <point x="730" y="1098"/>
      <point x="695" y="1102"/>
      <point x="662" y="1102" type="curve"/>
      <point x="472" y="1102"/>
      <point x="354" y="902"/>
      <point x="354" y="612" type="curve"/>
      <point x="415" y="572" type="line"/>
      <point x="413" y="714"/>
      <point x="480" y="785"/>
      <point x="638" y="785" type="curve"/>
      <point x="668" y="785"/>
      <point x="722" y="780"/>
      <point x="749" y="777" type="curve"/>
    </contour>
  </outline>
</glyph>
<glyph name="uni0350" format="2">
  <unicode hex="0350"/>
  <anchor x="-656" y="1193" name="_top"/>
  <anchor x="-653" y="1760" name="top"/>
  <anchor x="-653" y="1760" name="parent_top"/>
  <outline>
    <contour>
      <point x="-608" y="1455" type="line"/>
      <point x="-380" y="1497" type="line"/>
      <point x="-380" y="1391" type="line"/>
      <point x="-897" y="1215" type="line"/>
      <point x="-897" y="1360" type="line"/>
    </contour>
    <contour>
      <point x="-897" y="1562" type="line"/>
      <point x="-897" y="1707" type="line"/>
      <point x="-380" y="1531" type="line"/>
      <point x="-380" y="1425" type="line"/>
      <point x="-608" y="1465" type="line"/>
    </contour>
  </outline>
</glyph>
<glyph name="tonos" format="2">
  <advance width="517"/>
  <unicode hex="0384"/>
  <outline>
    <contour>
      <point x="283" y="1218" type="line"/>
      <point x="469" y="1632" type="line"/>
      <point x="178" y="1680" type="line"/>
      <point x="90" y="1259" type="line"/>
    </contour>
  </outline>
</glyph>
<glyph name="Delta" format="2">
  <advance width="1525"/>
  <unicode hex="0394"/>
  <unicode hex="2206"/>
  <guideline x="0.0" y="901.0" angle="0.0" identifier="eTg7Hdj1P7"/>
  <guideline x="0.0" y="555.0" angle="0.0" identifier="oHaiYFPLW7"/>
  <outline>
    <contour>
      <point x="873" y="1338" type="line"/>
      <point x="765" y="1456" type="line"/>
      <point x="579" y="1456" type="line"/>
      <point x="17" y="0" type="line"/>
      <point x="387" y="0" type="line"/>
    </contour>
    <contour>
      <point x="1161" y="0" type="line"/>
      <point x="1532" y="0" type="line"/>
      <point x="960" y="1456" type="line"/>
      <point x="774" y="1456" type="line"/>
      <point x="663" y="1347" type="line"/>
    </contour>
    <contour>
      <point x="1186" y="270" type="line"/>
      <point x="305" y="270" type="line"/>
      <point x="305" y="0" type="line"/>
      <point x="1186" y="0" type="line"/>
    </contour>
  </outline>
</glyph>
<glyph name="Sigma" format="2">
  <advance width="1220"/>
  <unicode hex="03A3"/>
  <outline>
    <contour>
      <point x="62" y="0" type="line"/>
      <point x="1171" y="0" type="line"/>
      <point x="1171" y="270" type="line"/>
      <point x="425" y="270" type="line"/>
      <point x="428" y="164" type="line"/>
      <point x="878" y="708" type="line"/>
      <point x="878" y="748" type="line"/>
      <point x="480" y="1246" type="line"/>
      <point x="480" y="1185" type="line"/>
      <point x="1139" y="1185" type="line"/>
      <point x="1139" y="1456" type="line"/>
      <point x="74" y="1456" type="line"/>
      <point x="74" y="1199" type="line"/>
      <point x="497" y="666" type="line"/>
      <point x="497" y="726" type="line"/>
      <point x="62" y="218" type="line"/>
    </contour>
  </outline>
</glyph>
<glyph name="Omega" format="2">
  <advance width="1484"/>
  <unicode hex="03A9"/>
  <anchor x="70.0" y="1456.0" name="GRK_topleft"/>
  <outline>
    <contour>
      <point x="77" y="0" type="line"/>
      <point x="657" y="0" type="line"/>
      <point x="657" y="497" type="line"/>
      <point x="498" y="531"/>
      <point x="427" y="643"/>
      <point x="427" y="832" type="curve"/>
      <point x="427" y="861" type="line"/>
      <point x="427" y="1090"/>
      <point x="539" y="1201"/>
      <point x="741" y="1201" type="curve"/>
      <point x="943" y="1201"/>
      <point x="1056" y="1090"/>
      <point x="1056" y="861" type="curve"/>
      <point x="1056" y="832" type="line"/>
      <point x="1056" y="643"/>
      <point x="984" y="531"/>
      <point x="825" y="497" type="curve"/>
      <point x="825" y="0" type="line"/>
      <point x="1405" y="0" type="line"/>
      <point x="1405" y="270" type="line"/>
      <point x="1067" y="270" type="line"/>
      <point x="1067" y="350" type="line"/>
      <point x="1276" y="424"/>
      <point x="1413" y="567"/>
      <point x="1413" y="847" type="curve"/>
      <point x="1413" y="882" type="line"/>
      <point x="1413" y="1256"/>
      <point x="1156" y="1476"/>
      <point x="742" y="1476" type="curve"/>
      <point x="328" y="1476"/>
      <point x="70" y="1257"/>
      <point x="70" y="882" type="curve"/>
      <point x="70" y="847" type="line"/>
      <point x="70" y="567"/>
      <point x="206" y="424"/>
      <point x="415" y="350" type="curve"/>
      <point x="415" y="270" type="line"/>
      <point x="77" y="270" type="line"/>
    </contour>
  </outline>
</glyph>
<glyph name="theta" format="2">
  <advance width="1210"/>
  <unicode hex="03B8"/>
  <outline>
    <contour>
      <point x="605" y="-20" type="curve" smooth="yes"/>
      <point x="933" y="-20"/>
      <point x="1146" y="154"/>
      <point x="1146" y="647" type="curve"/>
      <point x="1146" y="907" type="line"/>
      <point x="1146" y="1387"/>
      <point x="934" y="1557"/>
      <point x="606" y="1557" type="curve" smooth="yes"/>
      <point x="275" y="1557"/>
      <point x="63" y="1387"/>
      <point x="63" y="907" type="curve"/>
      <point x="63" y="647" type="line"/>
      <point x="63" y="154"/>
      <point x="277" y="-20"/>
    </contour>
    <contour>
      <point x="606" y="240" type="curve" smooth="yes"/>
      <point x="463" y="240"/>
      <point x="400" y="320"/>
      <point x="400" y="584" type="curve" smooth="yes"/>
      <point x="400" y="964" type="line" smooth="yes"/>
      <point x="400" y="1227"/>
      <point x="470" y="1297"/>
      <point x="603" y="1297" type="curve" smooth="yes"/>
      <point x="739" y="1297"/>
      <point x="809" y="1227"/>
      <point x="809" y="964" type="curve" smooth="yes"/>
      <point x="809" y="584" type="line"/>
      <point x="809" y="320"/>
      <point x="748" y="240"/>
    </contour>
    <contour>
      <point x="230" y="650" type="line"/>
      <point x="964" y="650" type="line"/>
      <point x="964" y="897" type="line"/>
      <point x="230" y="897" type="line"/>
    </contour>
  </outline>
</glyph>
<glyph name="iota" format="2">
  <advance width="699"/>
  <unicode hex="03B9"/>
  <guideline x="0.0" y="659.0" angle="0.0" identifier="exXqUhioO9"/>
  <guideline x="0.0" y="1005.0" angle="0.0" identifier="rB9FVjDUph"/>
  <anchor x="294" y="1268" name="top"/>
  <anchor x="699" y="1268" name="top0315"/>
  <anchor x="294" y="1268" name="parent_top"/>
  <outline>
    <contour>
      <point x="107" y="1082" type="line"/>
      <point x="107" y="320" type="line"/>
      <point x="107" y="85"/>
      <point x="231" y="-11"/>
      <point x="448" y="-11" type="curve" smooth="yes"/>
      <point x="519" y="-11"/>
      <point x="579" y="-1"/>
      <point x="638" y="18" type="curve"/>
      <point x="638" y="259" type="line"/>
      <point x="615" y="255"/>
      <point x="592" y="253"/>
      <point x="554" y="253" type="curve" smooth="yes"/>
      <point x="471" y="253"/>
      <point x="444" y="276"/>
      <point x="444" y="362" type="curve"/>
      <point x="445" y="1082" type="line"/>
    </contour>
  </outline>
</glyph>
<glyph name="kappa" format="2">
  <advance width="1137"/>
  <unicode hex="03BA"/>
  <outline>
    <contour>
      <point x="98" y="0" type="line"/>
      <point x="434" y="0" type="line"/>
      <point x="434" y="424" type="line"/>
      <point x="511" y="424" type="line"/>
      <point x="801" y="0" type="line"/>
      <point x="1169" y="0" type="line"/>
      <point x="767" y="562" type="line"/>
      <point x="1133" y="1082" type="line"/>
      <point x="775" y="1082" type="line"/>
      <point x="498" y="681" type="line"/>
      <point x="434" y="681" type="line"/>
      <point x="434" y="1082" type="line"/>
      <point x="98" y="1082" type="line"/>
    </contour>
  </outline>
</glyph>
<glyph name="rho" format="2">
  <advance width="1203"/>
  <unicode hex="03C1"/>
  <outline>
    <contour>
      <point x="98" y="-416" type="line"/>
      <point x="435" y="-416" type="line"/>
      <point x="435" y="98" type="line"/>
      <point x="483" y="21"/>
      <point x="600" y="-20"/>
      <point x="725" y="-20" type="curve" smooth="yes"/>
      <point x="940" y="-20"/>
      <point x="1149" y="156"/>
      <point x="1149" y="529" type="curve" smooth="yes"/>
      <point x="1149" y="562" type="line" smooth="yes"/>
      <point x="1149" y="887"/>
      <point x="995" y="1102"/>
      <point x="640" y="1102" type="curve" smooth="yes"/>
      <point x="268" y="1102"/>
      <point x="98" y="883"/>
      <point x="98" y="545" type="curve" smooth="yes"/>
    </contour>
    <contour>
      <point x="621" y="240" type="curve" smooth="yes"/>
      <point x="529" y="240"/>
      <point x="462" y="299"/>
      <point x="435" y="373" type="curve"/>
      <point x="435" y="588" type="line"/>
      <point x="435" y="758"/>
      <point x="502" y="842"/>
      <point x="624" y="842" type="curve" smooth="yes"/>
      <point x="755" y="842"/>
      <point x="812" y="757"/>
      <point x="812" y="584" type="curve" smooth="yes"/>
      <point x="812" y="506" type="line" smooth="yes"/>
      <point x="812" y="333"/>
      <point x="748" y="240"/>
    </contour>
  </outline>
</glyph>
<glyph name="finalsigma" format="2">
  <advance width="1126"/>
  <unicode hex="03C2"/>
  <outline>
    <contour>
      <point x="655" y="-341" type="curve"/>
      <point x="884" y="-341" type="line"/>
      <point x="937" y="-215"/>
      <point x="966" y="-78"/>
      <point x="966" y="-6" type="curve"/>
      <point x="966" y="149"/>
      <point x="885" y="227"/>
      <point x="685" y="267" type="curve" smooth="yes"/>
      <point x="605" y="283" type="line" smooth="yes"/>
      <point x="429" y="318"/>
      <point x="390" y="385"/>
      <point x="390" y="531" type="curve" smooth="yes"/>
      <point x="390" y="581" type="line" smooth="yes"/>
      <point x="390" y="755"/>
      <point x="443" y="843"/>
      <point x="582" y="843" type="curve"/>
      <point x="690" y="843"/>
      <point x="745" y="784"/>
      <point x="745" y="690" type="curve" smooth="yes"/>
      <point x="745" y="680" type="line"/>
      <point x="1078" y="680" type="line"/>
      <point x="1078" y="689" type="line" smooth="yes"/>
      <point x="1078" y="908"/>
      <point x="912" y="1102"/>
      <point x="582" y="1102" type="curve" smooth="yes"/>
      <point x="232" y="1102"/>
      <point x="53" y="884"/>
      <point x="53" y="557" type="curve" smooth="yes"/>
      <point x="53" y="504" type="line" smooth="yes"/>
      <point x="53" y="203"/>
      <point x="203" y="55"/>
      <point x="478" y="0" type="curve" smooth="yes"/>
      <point x="558" y="-16" type="line" smooth="yes"/>
      <point x="654" y="-35"/>
      <point x="695" y="-60"/>
      <point x="695" y="-126" type="curve" smooth="yes"/>
      <point x="695" y="-180"/>
      <point x="683" y="-258"/>
    </contour>
  </outline>
</glyph>
<glyph name="upsilon" format="2">
  <advance width="1154"/>
  <unicode hex="03C5"/>
  <anchor x="577.0" y="1082" name="GRK_top"/>
  <outline>
    <contour>
      <point x="575" y="-20" type="curve" smooth="yes"/>
      <point x="926" y="-20"/>
      <point x="1065" y="133"/>
      <point x="1065" y="404" type="curve" smooth="yes"/>
      <point x="1065" y="1082" type="line"/>
      <point x="727" y="1082" type="line"/>
      <point x="727" y="444" type="line" smooth="yes"/>
      <point x="727" y="312"/>
      <point x="683" y="240"/>
      <point x="575" y="240" type="curve" smooth="yes"/>
      <point x="466" y="240"/>
      <point x="426" y="312"/>
      <point x="426" y="444" type="curve" smooth="yes"/>
      <point x="426" y="1082" type="line"/>
      <point x="89" y="1082" type="line"/>
      <point x="89" y="404" type="line" smooth="yes"/>
      <point x="89" y="133"/>
      <point x="224" y="-20"/>
    </contour>
  </outline>
</glyph>
<glyph name="omega" format="2">
  <advance width="1561"/>
  <unicode hex="03C9"/>
  <anchor x="780.0" y="1082" name="GRK_top"/>
  <outline>
    <contour>
      <point x="475.0" y="-20" type="curve" smooth="yes"/>
      <point x="635.0" y="-20"/>
      <point x="744.0" y="65"/>
      <point x="795.0" y="220" type="curve"/>
      <point x="764.0" y="220" type="line"/>
      <point x="818.0" y="59"/>
      <point x="935.0" y="-20"/>
      <point x="1085.0" y="-20" type="curve" smooth="yes"/>
      <point x="1336.0" y="-20"/>
      <point x="1497.0" y="113"/>
      <point x="1497.0" y="466" type="curve"/>
      <point x="1497.0" y="735"/>
      <point x="1386.0" y="964"/>
      <point x="1255.0" y="1082" type="curve"/>
      <point x="995.0" y="990" type="line"/>
      <point x="1105.0" y="856"/>
      <point x="1159.0" y="675"/>
      <point x="1159.0" y="449" type="curve"/>
      <point x="1159.0" y="289"/>
      <point x="1129.0" y="240"/>
      <point x="1048.0" y="240" type="curve"/>
      <point x="973.0" y="240"/>
      <point x="934.0" y="289"/>
      <point x="934.0" y="421" type="curve"/>
      <point x="934.0" y="723" type="line"/>
      <point x="626.0" y="723" type="line"/>
      <point x="626.0" y="421" type="line"/>
      <point x="626.0" y="289"/>
      <point x="586.0" y="240"/>
      <point x="512.0" y="240" type="curve"/>
      <point x="431.0" y="240"/>
      <point x="401.0" y="289"/>
      <point x="401.0" y="449" type="curve"/>
      <point x="401.0" y="675"/>
      <point x="455.0" y="856"/>
      <point x="564.0" y="990" type="curve"/>
      <point x="303.0" y="1082" type="line"/>
      <point x="171.0" y="964"/>
      <point x="63.0" y="735"/>
      <point x="63.0" y="466" type="curve"/>
      <point x="63.0" y="113"/>
      <point x="224.0" y="-20"/>
    </contour>
  </outline>
</glyph>
<glyph name="uni0417" format="2">
  <advance width="1289"/>
  <unicode hex="0417"/>
  <guideline x="0.0" y="1658.0" angle="0.0" identifier="NOL8AfYa7f"/>
  <guideline x="0.0" y="555.0" angle="0.0" identifier="qFY2HdpT8a"/>
  <anchor x="627" y="1600" name="top"/>
  <anchor x="638" y="-10" name="bottom"/>
  <anchor x="1289" y="1600" name="top0315"/>
  <anchor x="627" y="1600" name="parent_top"/>
  <outline>
    <contour>
      <point x="702" y="697" type="line"/>
      <point x="983" y="697"/>
      <point x="1171" y="861"/>
      <point x="1171" y="1061" type="curve"/>
      <point x="1171" y="1333"/>
      <point x="954" y="1475"/>
      <point x="621" y="1475" type="curve" smooth="yes"/>
      <point x="332" y="1475"/>
      <point x="83" y="1319"/>
      <point x="83" y="1058" type="curve"/>
      <point x="433" y="1058" type="line"/>
      <point x="433" y="1153"/>
      <point x="516" y="1205"/>
      <point x="621" y="1205" type="curve" smooth="yes"/>
      <point x="756" y="1205"/>
      <point x="820" y="1134"/>
      <point x="820" y="1052" type="curve"/>
      <point x="820" y="941"/>
      <point x="766" y="873"/>
      <point x="637" y="873" type="curve" smooth="yes"/>
      <point x="451" y="873" type="line"/>
      <point x="451" y="697" type="line"/>
    </contour>
    <contour>
      <point x="451" y="786" type="line"/>
      <point x="451" y="613" type="line"/>
      <point x="637" y="613" type="line" smooth="yes"/>
      <point x="771" y="613"/>
      <point x="842" y="560"/>
      <point x="842" y="416" type="curve" smooth="yes"/>
      <point x="842" y="323"/>
      <point x="761" y="250"/>
      <point x="621" y="250" type="curve" smooth="yes"/>
      <point x="500" y="250"/>
      <point x="414" y="316"/>
      <point x="414" y="404" type="curve"/>
      <point x="62" y="404" type="line"/>
      <point x="62" y="106"/>
      <point x="351" y="-19"/>
      <point x="621" y="-19" type="curve" smooth="yes"/>
      <point x="954" y="-19"/>
      <point x="1194" y="135"/>
      <point x="1194" y="408" type="curve" smooth="yes"/>
      <point x="1194" y="651"/>
      <point x="1013" y="786"/>
      <point x="702" y="786" type="curve" smooth="yes"/>
    </contour>
  </outline>
</glyph>
<glyph name="uni042B" format="2">
  <advance width="1785"/>
  <unicode hex="042B"/>
  <anchor x="907" y="1600" name="top"/>
  <anchor x="1785" y="1600" name="top0315"/>
  <anchor x="907" y="1600" name="parent_top"/>
  <outline>
    <contour>
      <point x="329.0" y="955.0" type="line"/>
      <point x="329.0" y="685.0" type="line"/>
      <point x="642.0" y="685.0" type="line"/>
      <point x="792.0" y="685.0"/>
      <point x="874.0" y="600.0"/>
      <point x="874.0" y="485.0" type="curve"/>
      <point x="874.0" y="365.0"/>
      <point x="792.0" y="270.0"/>
      <point x="642.0" y="270.0" type="curve"/>
      <point x="462.0" y="270.0" type="line"/>
      <point x="462.0" y="1456.0" type="line"/>
      <point x="110.0" y="1456.0" type="line"/>
      <point x="110.0" y="0.0" type="line"/>
      <point x="642.0" y="0.0" type="line"/>
      <point x="996.0" y="0.0"/>
      <point x="1224.0" y="197.0"/>
      <point x="1224.0" y="483.0" type="curve"/>
      <point x="1224.0" y="767.0"/>
      <point x="996.0" y="955.0"/>
      <point x="642.0" y="955.0" type="curve"/>
    </contour>
    <contour>
      <point x="1680.0" y="1456.0" type="line"/>
      <point x="1330.0" y="1456.0" type="line"/>
      <point x="1330.0" y="0.0" type="line"/>
      <point x="1680.0" y="0.0" type="line"/>
    </contour>
  </outline>
</glyph>
<glyph name="uni045B" format="2">
  <advance width="1152"/>
  <unicode hex="045B"/>
  <outline>
    <contour>
      <point x="425.0" y="1536.0" type="line"/>
      <point x="88.0" y="1536.0" type="line"/>
      <point x="88.0" y="0.0" type="line"/>
      <point x="425.0" y="0.0" type="line"/>
    </contour>
    <contour>
      <point x="385.0" y="578.0" type="line"/>
      <point x="385.0" y="729.0"/>
      <point x="413.0" y="842.0"/>
      <point x="571.0" y="842.0" type="curve" smooth="yes"/>
      <point x="668.0" y="842.0"/>
      <point x="725.0" y="806.0"/>
      <point x="725.0" y="674.0" type="curve" smooth="yes"/>
      <point x="725.0" y="0.0" type="line"/>
      <point x="1064.0" y="0.0" type="line"/>
      <point x="1064.0" y="672.0" type="line" smooth="yes"/>
      <point x="1064.0" y="986.0"/>
      <point x="915.0" y="1102.0"/>
      <point x="701.0" y="1102.0" type="curve" smooth="yes"/>
      <point x="463.0" y="1102.0"/>
      <point x="306.0" y="880.0"/>
      <point x="306.0" y="576.0" type="curve"/>
    </contour>
    <contour>
      <point x="672.0" y="1390.0" type="line"/>
      <point x="-59.0" y="1390.0" type="line"/>
      <point x="-59.0" y="1199.0" type="line"/>
      <point x="672.0" y="1199.0" type="line"/>
    </contour>
  </outline>
</glyph>
<glyph name="uni0485" format="2">
  <unicode hex="0485"/>
  <anchor x="-468" y="1280" name="_top"/>
  <outline>
    <contour>
      <point x="-425" y="1309" type="line"/>
      <point x="-344" y="1377" type="line"/>
      <point x="-402" y="1482" type="line"/>
      <point x="-401" y="1652" type="line"/>
      <point x="-591" y="1652" type="line"/>
      <point x="-591" y="1500" type="line"/>
    </contour>
  </outline>
</glyph>
<glyph name="uni1D54" format="2">
  <advance width="850"/>
  <unicode hex="1D54"/>
  <outline>
    <contour>
      <point x="810" y="1043" type="line"/>
      <point x="810" y="1059" type="line" smooth="yes"/>
      <point x="810" y="1292"/>
      <point x="677" y="1466"/>
      <point x="424" y="1466" type="curve" smooth="yes"/>
      <point x="174" y="1466"/>
      <point x="40" y="1292"/>
      <point x="40" y="1059" type="curve" smooth="yes"/>
      <point x="40" y="1043" type="line"/>
      <point x="268" y="1043" type="line"/>
      <point x="268" y="1059" type="line" smooth="yes"/>
      <point x="268" y="1185"/>
      <point x="317" y="1274"/>
      <point x="424" y="1274" type="curve" smooth="yes"/>
      <point x="534" y="1274"/>
      <point x="582" y="1185"/>
      <point x="582" y="1059" type="curve" smooth="yes"/>
      <point x="582" y="1043" type="line"/>
    </contour>
  </outline>
</glyph>
<glyph name="uni1D76" format="2">
  <advance width="1163"/>
  <unicode hex="1D76"/>
  <anchor x="573" y="1290" name="top"/>
  <anchor x="573" y="0" name="bottom"/>
  <anchor x="1163" y="1290" name="top0315"/>
  <anchor x="573" y="1290" name="parent_top"/>
  <outline>
    <contour>
      <point x="950" y="695" type="line"/>
      <point x="950" y="634"/>
      <point x="914" y="585"/>
      <point x="840" y="585" type="curve" smooth="yes"/>
      <point x="736" y="585"/>
      <point x="413" y="668"/>
      <point x="299" y="668" type="curve" smooth="yes"/>
      <point x="148" y="668"/>
      <point x="39" y="557"/>
      <point x="39" y="435" type="curve"/>
      <point x="218" y="385" type="line"/>
      <point x="218" y="446"/>
      <point x="252" y="495"/>
      <point x="327" y="495" type="curve" smooth="yes"/>
      <point x="435" y="495"/>
      <point x="732" y="411"/>
      <point x="870" y="411" type="curve" smooth="yes"/>
      <point x="1029" y="411"/>
      <point x="1128" y="520"/>
      <point x="1128" y="644" type="curve"/>
    </contour>
    <contour>
      <point x="1051" y="260" type="line"/>
      <point x="213" y="260" type="line"/>
      <point x="213" y="0" type="line"/>
      <point x="1051" y="0" type="line"/>
    </contour>
    <contour>
      <point x="1041" y="900" type="line"/>
      <point x="1041" y="1082" type="line"/>
      <point x="810" y="1082" type="line"/>
      <point x="133" y="188" type="line"/>
      <point x="133" y="0" type="line"/>
      <point x="364" y="0" type="line"/>
    </contour>
    <contour>
      <point x="931" y="1082" type="line"/>
      <point x="154" y="1082" type="line"/>
      <point x="154" y="822" type="line"/>
      <point x="931" y="822" type="line"/>
    </contour>
  </outline>
</glyph>
<glyph name="equalsuperior" format="2">
  <advance width="746"/>
  <unicode hex="207C"/>
  <outline>
    <contour>
      <point x="666" y="943" type="line"/>
      <point x="80" y="943" type="line"/>
      <point x="80" y="754" type="line"/>
      <point x="666" y="754" type="line"/>
    </contour>
    <contour>
      <point x="666" y="1263" type="line"/>
      <point x="80" y="1263" type="line"/>
      <point x="80" y="1074" type="line"/>
      <point x="666" y="1074" type="line"/>
    </contour>
  </outline>
</glyph>
<glyph name="uni2C69" format="2">
  <advance width="1414"/>
  <unicode hex="2C69"/>
  <outline>
    <contour>
      <point x="1405" y="270" type="line" name="hr00"/>
      <point x="1013" y="270" type="line"/>
      <point x="1054" y="109" type="line"/>
      <point x="1054" y="-358" type="line"/>
      <point x="1405" y="-358" type="line"/>
    </contour>
    <contour>
      <point x="462" y="1456" type="line"/>
      <point x="111" y="1456" type="line"/>
      <point x="111" y="0" type="line"/>
      <point x="462" y="0" type="line"/>
    </contour>
    <contour>
      <point x="1331" y="1456" type="line"/>
      <point x="898" y="1456" type="line"/>
      <point x="584" y="999" type="line"/>
      <point x="373" y="679" type="line"/>
      <point x="437" y="357" type="line"/>
      <point x="767" y="718" type="line"/>
    </contour>
    <contour>
      <point x="916" y="0" type="line"/>
      <point x="1331" y="0" type="line"/>
      <point x="813" y="857" type="line"/>
      <point x="540" y="656" type="line"/>
    </contour>
  </outline>
</glyph>
<glyph name="uni2DF2" format="2">
  <unicode hex="2DF2"/>
  <anchor x="-576" y="1170" name="_top"/>
  <outline>
    <contour>
      <point x="-491" y="1753" type="line"/>
      <point x="-660" y="1753" type="line"/>
      <point x="-660" y="1201" type="line"/>
      <point x="-491" y="1201" type="line"/>
    </contour>
    <contour>
      <point x="-190" y="1753" type="line"/>
      <point x="-358" y="1753" type="line"/>
      <point x="-358" y="1201" type="line"/>
      <point x="-190" y="1201" type="line"/>
    </contour>
    <contour>
      <point x="-861" y="1333" type="line"/>
      <point x="-861" y="1201" type="line"/>
      <point x="-278" y="1201" type="line"/>
      <point x="-278" y="1333" type="line"/>
    </contour>
    <contour>
      <point x="-793" y="1753" type="line"/>
      <point x="-961" y="1753" type="line"/>
      <point x="-961" y="1201" type="line"/>
      <point x="-793" y="1201" type="line"/>
    </contour>
  </outline>
</glyph>
<glyph name="uni2E0B" format="2">
  <advance width="936"/>
  <unicode hex="2E0B"/>
  <outline>
    <contour>
      <point x="856" y="1451" type="line"/>
      <point x="228" y="1451" type="line"/>
      <point x="228" y="1258" type="line"/>
      <point x="856" y="1258" type="line"/>
    </contour>
    <contour>
      <point x="308" y="1451" type="line"/>
      <point x="80" y="1451" type="line"/>
      <point x="80" y="655" type="line"/>
      <point x="308" y="655" type="line"/>
    </contour>
    <contour>
      <point x="80" y="655" type="line"/>
      <point x="708" y="655" type="line"/>
      <point x="708" y="848" type="line"/>
      <point x="80" y="848" type="line"/>
    </contour>
    <contour>
      <point x="628" y="655" type="line"/>
      <point x="856" y="655" type="line"/>
      <point x="856" y="1451" type="line"/>
      <point x="628" y="1451" type="line"/>
    </contour>
  </outline>
</glyph>
<glyph name="macrongravecomb.lc" format="2">
  <anchor x="-575" y="1990" name="mkmktop_acc"/>
  <outline>
    <contour>
      <point x="-228" y="1458" type="line"/>
      <point x="-922" y="1458" type="line"/>
      <point x="-922" y="1285" type="line"/>
      <point x="-228" y="1285" type="line"/>
    </contour>
    <contour>
      <point x="-614" y="1856" type="line"/>
      <point x="-970" y="1856" type="line"/>
      <point x="-688" y="1542" type="line"/>
      <point x="-414" y="1542" type="line"/>
    </contour>
  </outline>
</glyph>
<glyph name="uni02E5_uni02E8_uni02E5" format="2">
  <advance width="1312"/>
  <outline>
    <contour>
      <point x="1194" y="0" type="line"/>
      <point x="1194" y="1456" type="line"/>
      <point x="856" y="1456" type="line"/>
      <point x="625" y="921" type="line"/>
      <point x="414" y="1456" type="line"/>
      <point x="163" y="1356" type="line"/>
      <point x="603" y="299" type="line"/>
      <point x="856" y="884" type="line"/>
      <point x="856" y="0" type="line"/>
    </contour>
  </outline>
</glyph>
<glyph name="uni042A.smcp" format="2">
  <advance width="1495"/>
  <outline>
    <contour>
      <point x="10" y="1165" type="line"/>
      <point x="507" y="1165" type="line"/>
      <point x="507" y="905" type="line"/>
      <point x="10" y="905" type="line"/>
    </contour>
    <contour>
      <point x="930" y="815" type="line"/>
      <point x="1242" y="815"/>
      <point x="1448" y="650"/>
      <point x="1448" y="411" type="curve" smooth="yes"/>
      <point x="1448" y="171"/>
      <point x="1242" y="0"/>
      <point x="930" y="0" type="curve" smooth="yes"/>
      <point x="408" y="0" type="line"/>
      <point x="408" y="1165" type="line"/>
      <point x="746" y="1165" type="line"/>
      <point x="746" y="260" type="line"/>
      <point x="930" y="260" type="line" smooth="yes"/>
      <point x="1043" y="260"/>
      <point x="1110" y="330"/>
      <point x="1110" y="413" type="curve" smooth="yes"/>
      <point x="1110" y="494"/>
      <point x="1043" y="555"/>
      <point x="930" y="555" type="curve" smooth="yes"/>
      <point x="611" y="555" type="line"/>
      <point x="611" y="815" type="line"/>
    </contour>
  </outline>
</glyph>
